<svg xmlns="http://www.w3.org/2000/svg" width="1920" height="1080" viewBox="0 0 1920 1080" role="img" aria-labelledby="title desc">
  <title id="title">Vehicle scheduling endpoint browser result</title>
  <desc id="desc">Browser screenshot style image of localhost:3000/schedule returning pretty printed JSON.</desc>
  <rect width="1920" height="1080" fill="#f3f3f3"/>

  <rect x="0" y="0" width="1920" height="58" fill="#dedede"/>
  <rect x="5" y="5" width="52" height="49" rx="10" fill="#f5f5f5"/>
  <text x="20" y="38" font-family="Arial, sans-serif" font-size="26" fill="#111111">⌄</text>
  <text x="78" y="38" font-family="Arial, sans-serif" font-size="23" fill="#8bbde8">⌕</text>
  <text x="109" y="38" font-family="Arial, sans-serif" font-size="19" fill="#777777">postman - Search</text>
  <text x="389" y="38" font-family="Arial, sans-serif" font-size="26" fill="#222222">×</text>

  <rect x="420" y="5" width="360" height="58" rx="11" fill="#ffffff" stroke="#cfcfcf"/>
  <circle cx="442" cy="30" r="11" fill="none" stroke="#333333" stroke-width="2"/>
  <text x="465" y="38" font-family="Arial, sans-serif" font-size="20" fill="#333333">localhost:3000/schedule</text>
  <text x="748" y="39" font-family="Arial, sans-serif" font-size="28" fill="#222222">×</text>
  <text x="798" y="42" font-family="Arial, sans-serif" font-size="36" fill="#333333">＋</text>
  <text x="1738" y="35" font-family="Arial, sans-serif" font-size="24" fill="#111111">−</text>
  <text x="1811" y="35" font-family="Arial, sans-serif" font-size="22" fill="#111111">▢</text>
  <text x="1876" y="36" font-family="Arial, sans-serif" font-size="28" fill="#111111">×</text>

  <rect x="0" y="64" width="1920" height="56" fill="#ffffff"/>
  <text x="17" y="100" font-family="Arial, sans-serif" font-size="34" fill="#333333">‹</text>
  <text x="72" y="100" font-family="Arial, sans-serif" font-size="34" fill="#111111">⟳</text>
  <circle cx="138" cy="89" r="11" fill="none" stroke="#777777" stroke-width="2"/>
  <text x="135" y="96" font-family="Arial, sans-serif" font-size="16" fill="#777777">i</text>
  <text x="162" y="98" font-family="Arial, sans-serif" font-size="23" fill="#1a1a1a">localhost:3000/schedule</text>
  <text x="1393" y="97" font-family="Arial, sans-serif" font-size="20" fill="#222222">Summarize</text>
  <text x="1557" y="99" font-family="Arial, sans-serif" font-size="28" fill="#333333">⊙</text>
  <text x="1604" y="101" font-family="Arial, sans-serif" font-size="31" fill="#444444">☆</text>
  <text x="1660" y="100" font-family="Arial, sans-serif" font-size="29" fill="#333333">≋</text>
  <circle cx="1724" cy="90" r="17" fill="#bfbfbf"/>
  <text x="1769" y="99" font-family="Arial, sans-serif" font-size="26" fill="#333333">…</text>
  <text x="1819" y="98" font-family="Arial, sans-serif" font-size="20" fill="#111111">Chat</text>

  <rect x="1" y="119" width="1918" height="29" fill="#efefef" stroke="#cfcfcf"/>
  <text x="5" y="140" font-family="Consolas, 'Courier New', monospace" font-size="20" fill="#000000">Pretty-print</text>
  <rect x="142" y="126" width="17" height="17" rx="3" fill="#318aa0"/>
  <path d="M146 134 l4 5 l8 -11" fill="none" stroke="#ffffff" stroke-width="3"/>

  <rect x="2" y="148" width="1916" height="855" fill="#ffffff" stroke="#d9d9d9"/>
  <rect x="1896" y="124" width="13" height="54" rx="7" fill="#8d8d8d"/>
  <polygon points="1902,128 1896,136 1908,136" fill="#8d8d8d"/>
  <polygon points="1902,990 1896,982 1908,982" fill="#8d8d8d"/>

  <text x="7" y="190" font-family="Consolas, 'Courier New', monospace" font-size="20" fill="#000000">
    <tspan x="7" dy="0">[</tspan>
    <tspan x="29" dy="28">{</tspan>
    <tspan x="50" dy="28">"depotId": 1,</tspan>
    <tspan x="50" dy="28">"selectedTasks": [</tspan>
    <tspan x="72" dy="28">{</tspan>
    <tspan x="94" dy="28">"id": "3c91cb6d-5ba8-40de-9e52-d4c11939d055",</tspan>
    <tspan x="94" dy="28">"duration": 2,</tspan>
    <tspan x="94" dy="28">"impact": 8,</tspan>
    <tspan x="94" dy="28">"meta": {</tspan>
    <tspan x="115" dy="28">"TaskID": "3c91cb6d-5ba8-40de-9e52-d4c11939d055",</tspan>
    <tspan x="115" dy="28">"Duration": 2,</tspan>
    <tspan x="115" dy="28">"Impact": 8</tspan>
    <tspan x="94" dy="28">}</tspan>
    <tspan x="72" dy="28">},</tspan>
    <tspan x="72" dy="28">{</tspan>
    <tspan x="94" dy="28">"id": "b5483b4d-db0a-4fdf-abef-6292be5635bc",</tspan>
    <tspan x="94" dy="28">"duration": 4,</tspan>
    <tspan x="94" dy="28">"impact": 7,</tspan>
    <tspan x="94" dy="28">"meta": {</tspan>
    <tspan x="115" dy="28">"TaskID": "b5483b4d-db0a-4fdf-abef-6292be5635bc",</tspan>
    <tspan x="115" dy="28">"Duration": 4,</tspan>
    <tspan x="115" dy="28">"Impact": 7</tspan>
    <tspan x="94" dy="28">}</tspan>
    <tspan x="72" dy="28">},</tspan>
    <tspan x="72" dy="28">{</tspan>
    <tspan x="94" dy="28">"id": "a9bbae16-284f-4939-b425-36947f5e4948",</tspan>
    <tspan x="94" dy="28">"duration": 2,</tspan>
    <tspan x="94" dy="28">"impact": 5,</tspan>
    <tspan x="94" dy="28">"meta": {</tspan>
    <tspan x="115" dy="28">"TaskID": "a9bbae16-284f-4939-b425-36947f5e4948",</tspan>
    <tspan x="115" dy="28">"Duration": 2,</tspan>
    <tspan x="115" dy="28">"Impact": 5</tspan>
    <tspan x="94" dy="28">}</tspan>
    <tspan x="72" dy="28">},</tspan>
    <tspan x="72" dy="28">{</tspan>
    <tspan x="94" dy="28">"id": "3a858d06-9aa9-48d8-9eaa-9147485df4be",</tspan>
  </text>

  <rect x="0" y="1005" width="1920" height="75" fill="#e8f8ff"/>
  <rect x="296" y="1027" width="34" height="34" fill="#00a4ef"/>
  <circle cx="382" cy="1044" r="15" fill="none" stroke="#222222" stroke-width="5"/>
  <rect x="625" y="1028" width="39" height="32" rx="4" fill="#f8c32a"/>
  <circle cx="724" cy="1043" r="18" fill="#17a968"/>
  <circle cx="1042" cy="1044" r="29" fill="#e6e6e6"/>
  <text x="1580" y="1040" font-family="Arial, sans-serif" font-size="20" fill="#222222">ENG</text>
  <text x="1582" y="1063" font-family="Arial, sans-serif" font-size="18" fill="#222222">US</text>
  <text x="1762" y="1040" font-family="Arial, sans-serif" font-size="18" fill="#222222">06:06 PM</text>
  <text x="1762" y="1063" font-family="Arial, sans-serif" font-size="18" fill="#222222">16-05-2026</text>
</svg>
